<mxfile host="app.diagrams.net" modified="2024-05-23T02:47:43.086Z" agent="Mozilla/5.0 (Windows NT 10.0; Win64; x64) AppleWebKit/537.36 (KHTML, like Gecko) Chrome/124.0.0.0 Safari/537.36" version="24.4.6" etag="ZEg7x2RKD3Um7zPpbwq9" type="github">
  <diagram name="Page-1" id="TDYGqzMb1x67NVksJoTs">
    <mxGraphModel>
      <root>
        <mxCell id="0" />
        <mxCell id="1" parent="0" />
      </root>
    </mxGraphModel>
  </diagram>
</mxfile>
